<svg xmlns="http://www.w3.org/2000/svg" viewBox="0 0 191.99 31.03"><g data-name="レイヤー 2"><path d="M17.22 22.53a10.62 10.62 0 01-9.51-2.08c-.17-.34-.51-.52-.86-.86a3.86 3.86 0 01-1-3.29c3.29 3.12 8.3 4.84 12.44 2.08 4.67-3.11 5.36-9.16 2.94-13.83A14.6 14.6 0 0017.39.41a29.69 29.69 0 012.25 2.42A9.34 9.34 0 0121.37 8a6.83 6.83 0 01-1.73 4.67 1.42 1.42 0 01-1.56.69c.17-2.77 0-5.71-1.73-8.12a9.26 9.26 0 00-3.8-2.6 10.09 10.09 0 00-4.49-.34l-1.56.53C1 5.07-1.1 11.81.63 17.17-1.1 12.33.8 6.46 5.47 4c.34-.18.86-.35 1.21-.52a7.62 7.62 0 015.18 0c2.07.86 4.32 3.45 2.94 5.7a5.58 5.58 0 00-5.88-2.9 5.89 5.89 0 00-3.8 2.25 8.05 8.05 0 000 10 10.76 10.76 0 0012.1 4zm169.43 0a10.6 10.6 0 01-9.5-2.08c-.18-.34-.52-.52-.87-.86a3.83 3.83 0 01-1-3.29c3.28 3.12 8.29 4.84 12.44 2.08 4.66-3.11 5.35-9.16 2.94-13.83a14.63 14.63 0 00-3.84-4.14 29.69 29.69 0 012.25 2.42A9.27 9.27 0 01190.8 8a6.83 6.83 0 01-1.73 4.67 1.41 1.41 0 01-1.56.69c.18-2.77 0-5.71-1.72-8.12a9.32 9.32 0 00-3.8-2.6 10.14 10.14 0 00-4.5-.34l-1.55.52c-5.53 2.24-7.61 9-5.88 14.34-1.73-4.84.17-10.71 4.84-13.13.35-.18.86-.35 1.21-.52a7.62 7.62 0 015.18 0c2.08.86 4.32 3.45 2.94 5.7a5.57 5.57 0 00-5.87-2.94 5.88 5.88 0 00-3.81 2.25 8.07 8.07 0 000 10 10.76 10.76 0 0012.1 4zM46.61 9.71a3.81 3.81 0 001.91-1.61 4.83 4.83 0 00.75-2.66 4.45 4.45 0 00-2.34-4A11.23 11.23 0 0041.07 0H33v.32h.41a1.93 1.93 0 011 .25 1.87 1.87 0 011 1.71v17.37q-3.66-2.34-3.89-7.79h-.31a10.64 10.64 0 00-.07 1.26 9.19 9.19 0 001.8 6q2.82 3.48 9.37 3.48a17.82 17.82 0 005-.69 8.58 8.58 0 003.91-2.35A5.21 5.21 0 0052.81 16a6.3 6.3 0 00-.81-3.41 6.26 6.26 0 00-5.39-2.88zm-.9 9.87a6.46 6.46 0 01-4.61 1.55h-.88V1.36a4.08 4.08 0 013 1.11 4.62 4.62 0 011 3.22A4.8 4.8 0 0143 9.14a2.25 2.25 0 01-1.71.73v.29a7.51 7.51 0 014 1 4 4 0 011.53 1.63 5.6 5.6 0 01.59 2.67 5.33 5.33 0 01-1.7 4.12zM76.73 25a13.39 13.39 0 01-3.76.79h-.16c-3.82.17-7.14-1.42-10.29-3.1a2.24 2.24 0 01-.92-.55 1.94 1.94 0 01-.41-1.44V2.31a1.81 1.81 0 01.28-1 2 2 0 011.81-1h.31v-.32H54v.33h.41a2 2 0 011.41.57 2 2 0 01.61 1.42v17.53a2 2 0 01-.61 1.42 2 2 0 01-1.41.57H54v.32a14 14 0 015.31 1l.61.25c3.94 2.29 7.13 5.41 9.67 5.57a4.33 4.33 0 00.62 0l.86-.07a9.39 9.39 0 006.77-4.18l-.23-.25a7.44 7.44 0 01-.88.53zm11.38-13.14l-.25 1.05.25 1.07h9.5l.25-1.07-.25-1.05h-9.5zm72.58-6.23a5.31 5.31 0 00-3.83 1.66 14.09 14.09 0 00-3 4.75l-.53 1.31a18.52 18.52 0 00-2.49-4 11.67 11.67 0 00-2.29-1.95 9.25 9.25 0 00-2.73-1.19 10.15 10.15 0 00-2.37-.38h-1.32v.26a4.86 4.86 0 012.64 1 13.3 13.3 0 014 5.19 29.92 29.92 0 012.11 7l-.84 2.06c-1.42 3.52-2.88 5.95-4.38 7.27a5.26 5.26 0 01-1.87 1.12 5.4 5.4 0 01-1.63.31 5.07 5.07 0 01-1.29-.16v.26a7.22 7.22 0 005.76.47 10.31 10.31 0 005.37-4.19 17.79 17.79 0 002.06-4l.84-2.21 3.67-9.75a7.84 7.84 0 012.17-3.15 3 3 0 011.83-.73 5.06 5.06 0 011.63.26l.05-.26a7.89 7.89 0 00-3.56-.95z"/><path d="M143 24.57l.07-.27a5.92 5.92 0 01-1.36-.35 6.24 6.24 0 01-1.53-1 5.72 5.72 0 01-1.46-1.87c-1-1.91-1.16-3.24-1.22-7.25V8.52a4.13 4.13 0 01.57-2c.35-.34.95-1.06 1.42-1.06h.37v-.33l-8.77.56V6h.37a1.76 1.76 0 011.27.53 3.77 3.77 0 01.53 1.85c-.21-.17-.4-.34-.62-.49a6.16 6.16 0 00-3.45-1.08 4.49 4.49 0 00-2.37.6 3.12 3.12 0 00-1.11 1 4.32 4.32 0 00-.57 1.29 5.76 5.76 0 00-.17 1.42 4.27 4.27 0 00.34 1.61h.21a5.35 5.35 0 01-.14-1.18 4.1 4.1 0 011.18-3 3 3 0 012.18-.82 3.24 3.24 0 012.19.88 5.46 5.46 0 011.51 2.49 11.55 11.55 0 01.52 3.6 9.08 9.08 0 01-1.37 5.3 4.34 4.34 0 01-3.71 2 4.29 4.29 0 01-3.72-2.13 10.17 10.17 0 01-1.42-5.73 15.26 15.26 0 01.49-4 6 6 0 011.46-2.8l-.12-.2A6.69 6.69 0 00121 10a8.53 8.53 0 00-1.33 4.79 8 8 0 002.3 5.95 9 9 0 0011.91 0 7.48 7.48 0 00.65-.74 8.56 8.56 0 002.52 2.8 7.85 7.85 0 005.95 1.77zM111.21 6.34c-1.43.13-2.75.18-3.59 1.2-.16.19-.77.94-.92 1.14V7a1.69 1.69 0 01.54-1.26 1.75 1.75 0 011.27-.52h.37v-.33h-8.59v.28h.37a1.72 1.72 0 011.17.45l.08.07a1.85 1.85 0 01.52 1.31v12.52a1.83 1.83 0 01-.52 1.21v.05l-.08.06a1.73 1.73 0 01-1.17.46h-.37v.28h8.59v-.28h-.37a1.76 1.76 0 01-1.27-.53 1.66 1.66 0 01-.54-1.25v-6.74a7.94 7.94 0 01.93-3 4.48 4.48 0 012.63-1.39c2.12.16 3.65.59 4.69 5a2.35 2.35 0 010 .87 1.16 1.16 0 010 .18v-.06c0 .1 0 .06.08-.09 3.24-5.07 1.53-8.36-3.82-7.95zM89.93 1.22h-.85a7.23 7.23 0 00-5.59 2.5 9.73 9.73 0 00-2.26 6.77v3.87a7.66 7.66 0 01-.8 3.58c-1.42 2-4.31 3.11-6.42.74a8.09 8.09 0 01-1.32-4.73v-4.5a1.35 1.35 0 01.22-.76 1.59 1.59 0 011.45-.76h.51v-.32h-9.11v.32h.5a1.73 1.73 0 011.19.44 1.44 1.44 0 01.49 1.11v4.69a7.5 7.5 0 002.72 6.13 6.32 6.32 0 001.58.95h.09a6.8 6.8 0 001.54.36H74l.36.05c2.37.35 5 .16 6.61-1.35a8.11 8.11 0 002.56-6.22v-3.63a12 12 0 011.07-5.38 6.17 6.17 0 015.38-3.54z"/></g></svg>