<svg xmlns="http://www.w3.org/2000/svg" viewBox="0 0 194.83 27.72"><g data-name="letter"><path d="M49.64 5.64a4.6 4.6 0 01-.7 2.52 3.68 3.68 0 01-1.82 1.53 5.92 5.92 0 015.07 2.73A5.87 5.87 0 0153 15.6a4.94 4.94 0 01-1.45 3.45 8 8 0 01-3.7 2.22 16.83 16.83 0 01-4.75.66q-6.21 0-8.88-3.3A8.72 8.72 0 0132.51 13q0-.6.06-1.2h.3q.21 5.16 3.69 7.38V2.64a1.77 1.77 0 00-1-1.62 1.84 1.84 0 00-.93-.24h-.39v-.3h7.62a10.58 10.58 0 015.55 1.34 4.22 4.22 0 012.23 3.82zM41.9 20.52a6.16 6.16 0 004.37-1.47 5 5 0 001.58-3.87 5.29 5.29 0 00-.56-2.53 3.78 3.78 0 00-1.46-1.55 7.15 7.15 0 00-3.75-1v-.26a2.15 2.15 0 001.62-.69 4.56 4.56 0 001.15-3.27 4.39 4.39 0 00-.92-3.06 3.91 3.91 0 00-2.87-1v18.67q.42.03.84.03zM66.35 8.07a5.06 5.06 0 01-.54-2.17 6.55 6.55 0 01.27-1.9A5.79 5.79 0 0167 2.24 4.83 4.83 0 0168.75.81 8 8 0 0172.5 0 10.86 10.86 0 0178 1.47a10.29 10.29 0 014.71 5.31 10.57 10.57 0 01.75 4 10 10 0 01-3.61 8.07 14.08 14.08 0 01-9.42 3.06 14.2 14.2 0 01-9.45-3.06 10 10 0 01-3.65-8 10.28 10.28 0 012.12-6.46A10.49 10.49 0 0165.12.6l.18.27A7.87 7.87 0 0063 4.65a17.87 17.87 0 00-.79 5.35 12.24 12.24 0 002.25 7.74 7.13 7.13 0 005.9 2.88 7.24 7.24 0 005.88-2.71 11 11 0 002.23-7.19 13.63 13.63 0 00-.82-4.87 7.38 7.38 0 00-2.39-3.36 5.62 5.62 0 00-3.48-1.19 5.18 5.18 0 00-3.45 1.11 5.09 5.09 0 00-1.86 4.05 6.32 6.32 0 00.21 1.59zm30.9 0a5.06 5.06 0 01-.54-2.17A6.55 6.55 0 0197 4a5.79 5.79 0 01.9-1.74A4.83 4.83 0 0199.65.81 8 8 0 01103.4 0a10.86 10.86 0 015.46 1.47 10.29 10.29 0 014.71 5.31 10.57 10.57 0 01.75 4 10 10 0 01-3.61 8.07 14.08 14.08 0 01-9.42 3.06 14.2 14.2 0 01-9.45-3.06 10 10 0 01-3.65-8 10.28 10.28 0 012.12-6.46A10.49 10.49 0 0196 .6l.18.27a7.87 7.87 0 00-2.31 3.78 17.87 17.87 0 00-.76 5.35 12.24 12.24 0 002.25 7.74 7.13 7.13 0 005.9 2.88 7.24 7.24 0 005.88-2.71 11 11 0 002.23-7.19 13.63 13.63 0 00-.82-4.87 7.38 7.38 0 00-2.39-3.36 5.62 5.62 0 00-3.48-1.19 5.18 5.18 0 00-3.45 1.11 5.09 5.09 0 00-1.86 4.05 6.32 6.32 0 00.21 1.59zM118 21.18a1.8 1.8 0 001.34-.56 1.9 1.9 0 00.58-1.33V2.64A1.81 1.81 0 00119 1a1.84 1.84 0 00-1-.22h-.39v-.3h9.12v.3h-.35a1.9 1.9 0 00-1.36.54 1.75 1.75 0 00-.57 1.32v16.65a1.77 1.77 0 00.57 1.33 1.84 1.84 0 001.36.56h.35v.3h-9.12v-.3zm29.79 5.4a8.77 8.77 0 01-4 1.14 9.68 9.68 0 01-3.25-.51q-3.57-1.29-7.29-5.91l-7.89-9.72 7.11-9.42a.91.91 0 00.24-.54.93.93 0 00-.09-.42.86.86 0 00-.83-.45h-.31V.48h6.87v.27h-.12A4.14 4.14 0 00135 2.19l-5.85 7 8.16 10.14a23.09 23.09 0 005.13 5.22 10.31 10.31 0 005.34 1.77z"/><path d="M145.64 13a7.33 7.33 0 00-1.2 3.93 6.28 6.28 0 003.8 5.58 7.35 7.35 0 002.92.57 6.55 6.55 0 002.85-.6 4.17 4.17 0 002.52-4 4.32 4.32 0 00-.7-2.22 6.74 6.74 0 00-2.12-2.1l-5.1-3.42a5.52 5.52 0 01-3-4.8v-.6a5.35 5.35 0 011.85-3.76A6.52 6.52 0 01152 .06a34.61 34.61 0 014.14.3H158l-.39 4.41h-.27a3.13 3.13 0 00-1.2-2.5 4.77 4.77 0 00-3.14-.95 4 4 0 00-3.39 1.41 2.64 2.64 0 00-.51 1.56 2.11 2.11 0 00.51 1.43A7.28 7.28 0 00151.25 7l5.61 3.66a8.77 8.77 0 012.67 2.61 6.63 6.63 0 011.14 3.63 7.31 7.31 0 01-.49 2.54 7 7 0 01-1.62 2.47 8.53 8.53 0 01-2.9 1.86 10.27 10.27 0 01-3.91.72 9.74 9.74 0 01-3.89-.75 6.68 6.68 0 01-4.08-4.74 6.16 6.16 0 01-.18-1.5 7.59 7.59 0 011.77-4.77zM17.22 22.71a10.62 10.62 0 01-9.51-2.08c-.17-.34-.51-.52-.86-.86a3.84 3.84 0 01-1-3.28c3.29 3.11 8.3 4.83 12.44 2.07 4.67-3.11 5.36-9.16 2.94-13.82A14.5 14.5 0 0017.39.59 29.69 29.69 0 0119.64 3a9.34 9.34 0 011.73 5.18 6.83 6.83 0 01-1.73 4.67 1.41 1.41 0 01-1.56.69c.17-2.77 0-5.7-1.73-8.12-1-1.39-2.42-1.9-3.8-2.6a10.09 10.09 0 00-4.49-.34L6.5 3C1 5.25-1.1 12 .63 17.35-1.1 12.51.8 6.64 5.47 4.22c.34-.18.86-.35 1.21-.52a7.62 7.62 0 015.18 0c2.07.86 4.32 3.45 2.94 5.7a5.58 5.58 0 00-5.88-2.94 5.89 5.89 0 00-3.8 2.25 8.05 8.05 0 000 10 10.76 10.76 0 0012.1 4zm172.27 0a10.62 10.62 0 01-9.49-2.08c-.17-.34-.51-.52-.86-.86a3.84 3.84 0 01-1-3.28c3.29 3.11 8.3 4.83 12.44 2.07 4.67-3.11 5.36-9.16 2.94-13.82a14.5 14.5 0 00-3.8-4.15A29.69 29.69 0 01191.91 3a9.33 9.33 0 011.72 5.18 6.82 6.82 0 01-1.72 4.67 1.41 1.41 0 01-1.56.69c.17-2.77 0-5.7-1.73-8.12-1-1.39-2.42-1.9-3.8-2.6a10.09 10.09 0 00-4.49-.34l-1.56.52c-5.53 2.24-7.6 9-5.87 14.34-1.73-4.84.17-10.71 4.84-13.13.34-.18.86-.35 1.21-.52a7.62 7.62 0 015.18 0c2.07.86 4.32 3.45 2.94 5.7a5.58 5.58 0 00-5.88-2.94 5.89 5.89 0 00-3.8 2.25 8.05 8.05 0 000 10 10.76 10.76 0 0012.1 4z"/></g></svg>