<svg xmlns="http://www.w3.org/2000/svg" viewBox="0 0 291.2 32.07"><path d="M56 13.86c.06.6.09 1.35.09 2.26a13 13 0 01-.54 3.34 8.18 8.18 0 01-2 3.46A10.3 10.3 0 0145.66 26q-6.12 0-9.66-3a9.89 9.89 0 01-3.54-7.9A9.86 9.86 0 0136 7.2a14.18 14.18 0 019.47-3 19.87 19.87 0 014.29.45 13.37 13.37 0 013.39 1.17l.1 5.18H53a7.41 7.41 0 00-1.7-3.26 7.58 7.58 0 00-5.82-2.31A7.39 7.39 0 0039.58 8a10.26 10.26 0 00-2.23 7 10.34 10.34 0 002.32 7 8.27 8.27 0 006.41 2.79 9.1 9.1 0 007-2.82 10.82 10.82 0 002.61-7.65v-.42zm19.21 11.43a1.9 1.9 0 001.35-.54 1.85 1.85 0 00.6-1.32v-7.65h-9.45v7.71a8.49 8.49 0 01-1.83 5.73 5.15 5.15 0 01-4.14 1.68 9.41 9.41 0 01-1.89-.21l-.06-.3a4.69 4.69 0 002.85-2.76 12.34 12.34 0 00.57-4.14V6.75a1.88 1.88 0 00-.59-1.32 1.83 1.83 0 00-1.33-.54h-.39v-.3H70v.3h-.39a1.77 1.77 0 00-1.62.9 1.94 1.94 0 00-.3 1v7.74h9.45V7.29a7.31 7.31 0 012.19-5.58A6 6 0 0183.73 0 9.34 9.34 0 0185 .09l.06.3a4.32 4.32 0 00-2.86 2.76 13.85 13.85 0 00-.57 4.14V23.4a1.82 1.82 0 001 1.62 1.89 1.89 0 001 .27h.36v.3h-9.14v-.3zm42.12 5.79a8.37 8.37 0 01-6.63.54 11.94 11.94 0 01-6.15-4.86 21 21 0 01-2.37-4.59l-1-2.55h-7.04l-1.59 3.78a1.65 1.65 0 00-.15.63 1.45 1.45 0 00.1.52 1 1 0 00.45.51 1.39 1.39 0 00.77.23H94v.3h-6.46v-.3h.27a2.53 2.53 0 001.36-.41 3.09 3.09 0 001.13-1.21L97 8.4a9.11 9.11 0 00-2.5-3.63 3.57 3.57 0 00-2.12-.84 5.68 5.68 0 00-1.87.3l-.06-.3a9.06 9.06 0 014.14-1.11A6.15 6.15 0 0199 4.74a16.46 16.46 0 013.39 5.46l4.35 10.74q2.46 6.09 5 8.37a6 6 0 002.16 1.29 6.25 6.25 0 001.87.36 6.14 6.14 0 001.49-.18zM94.65 18.33h6.12l-2.1-5.55-.42-1.16c-.18-.49-.3-.83-.36-1zM145 30.69a11 11 0 01-5 1.17 12 12 0 01-4.25-.72 14.41 14.41 0 01-7.05-6Q128 24.09 126 21c-1.37-2-2.24-3.34-2.64-3.9-.71-1.1-1.27-1.7-1.69-1.8V15h.61a5.85 5.85 0 002.81-.69c1.3-.72 2-2.05 2-4a4.36 4.36 0 00-1.21-3.29 4 4 0 00-2.87-1.15h-2.28V23.4a1.77 1.77 0 00.57 1.33 1.8 1.8 0 001.35.56h.35v.3h-9.12v-.3h.39a1.95 1.95 0 001.92-1.86V6.78a2 2 0 00-.59-1.33 1.81 1.81 0 00-1.33-.56h-.39v-.3h10.29a9.15 9.15 0 016 1.77 4.76 4.76 0 011.67 3.9 5.42 5.42 0 01-1.63 4.09 5.2 5.2 0 01-3.74 1.58h-.38a9.14 9.14 0 012.05 1.47q.82.81 1.44 1.53c.41.48.76.9 1 1.27s.67.87 1.16 1.47 1 1.25 1.5 1.91 1.09 1.33 1.72 2a19.75 19.75 0 002.1 2 12.81 12.81 0 002.36 1.53 12.48 12.48 0 005.6 1.32z"/><path d="M166.4 31.08a8.36 8.36 0 01-6.63.54 12 12 0 01-6.15-4.86 21 21 0 01-2.36-4.59l-1-2.55h-7.08l-1.59 3.78a1.86 1.86 0 00-.15.63 1.47 1.47 0 00.11.52 1 1 0 00.45.51 1.38 1.38 0 00.76.23h.24v.3h-6.42v-.3h.27a2.54 2.54 0 001.37-.41 3.07 3.07 0 001.12-1.21l6.72-15.27a9.11 9.11 0 00-2.49-3.63 3.54 3.54 0 00-2.11-.84 5.64 5.64 0 00-1.87.3l-.07-.3a9.1 9.1 0 014.15-1.11 6.12 6.12 0 014.4 1.92 16.3 16.3 0 013.39 5.46l4.35 10.74q2.46 6.09 5 8.37A6.09 6.09 0 00163 30.6a6.2 6.2 0 001.87.36 6.06 6.06 0 001.48-.18zm-22.68-12.75h6.13l-2.11-5.55c-.1-.28-.23-.66-.42-1.16s-.3-.83-.36-1zm42.09-4.47c.06.6.09 1.35.09 2.26a13 13 0 01-.54 3.34 8.18 8.18 0 01-2 3.46 10.3 10.3 0 01-7.87 3.08q-6.12 0-9.66-3a9.89 9.89 0 01-3.54-7.9 9.87 9.87 0 013.59-7.9 14.16 14.16 0 019.46-3 19.87 19.87 0 014.29.45A13.37 13.37 0 01183 5.79l.06 5.16h-.24a7.41 7.41 0 00-1.71-3.21 7.58 7.58 0 00-5.82-2.31A7.37 7.37 0 00169.42 8a10.26 10.26 0 00-2.24 7 10.34 10.34 0 002.33 7 8.25 8.25 0 006.4 2.79 9.1 9.1 0 007-2.82 10.82 10.82 0 002.61-7.65v-.42zm2.79-2.28a4.17 4.17 0 01-1.47-3 3.23 3.23 0 01.81-2.19 5.32 5.32 0 014.29-1.8h14.13a13.65 13.65 0 002.31-.23 6.86 6.86 0 001.26-.36v5.24h-.3v-.36a2.88 2.88 0 00-3-3.06h-4v17.61a1.89 1.89 0 001 1.62 1.84 1.84 0 00.93.24h.39v.3h-9.12v-.3h.39a1.91 1.91 0 001.92-1.83V5.82h-5.85a4.9 4.9 0 00-2.16.45 3 3 0 00-1.89 2.82 4.54 4.54 0 00.72 2.34zm26.34 13.71a1.8 1.8 0 001.34-.56 1.9 1.9 0 00.58-1.33V6.69a1.88 1.88 0 00-1-1.56 2 2 0 00-.93-.24h-.39v-.3H223a11.23 11.23 0 002.31-.21 9.88 9.88 0 001.29-.33V9.3h-.33v-.36a2.93 2.93 0 00-.76-2.18 3 3 0 00-2.15-.88h-2v8.73h4.77a2.56 2.56 0 001.83-.77 2.47 2.47 0 00.72-1.81v-.27h.32v6.93h-.27v-.24a2.48 2.48 0 00-.72-1.83 2.55 2.55 0 00-1.8-.75h-4.8v8.43h5.85a5.5 5.5 0 003.63-1.3 7.44 7.44 0 002.2-3.57h.3L232 25.59h-17.45v-.3zm54 5.4a11 11 0 01-5 1.17 12.05 12.05 0 01-4.26-.72 14.49 14.49 0 01-7-6q-.75-1.08-2.79-4.14t-2.64-3.9q-1-1.65-1.68-1.8V15h.6a5.88 5.88 0 002.82-.69q1.95-1.08 1.95-4a4.36 4.36 0 00-1.2-3.29 4 4 0 00-2.88-1.15h-2.28V23.4a1.77 1.77 0 00.57 1.33 1.84 1.84 0 001.35.56h.39v.3h-9.12v-.3h.39a1.95 1.95 0 001.92-1.86V6.78a1.91 1.91 0 00-.58-1.33 1.84 1.84 0 00-1.34-.56h-.39v-.3H248a9.14 9.14 0 016 1.77 4.76 4.76 0 011.68 3.9 5.42 5.42 0 01-1.63 4.09 5.21 5.21 0 01-3.74 1.58h-.39a9 9 0 012.08 1.44q.83.81 1.44 1.53c.41.48.76.9 1.05 1.27s.67.87 1.15 1.47l1.5 1.91c.52.66 1.1 1.33 1.73 2a19.75 19.75 0 002.1 2 13.09 13.09 0 002.35 1.53 12.53 12.53 0 005.61 1.32zM17.22 26.82a10.62 10.62 0 01-9.51-2.08c-.17-.34-.51-.52-.86-.86a3.86 3.86 0 01-1-3.29c3.29 3.11 8.3 4.84 12.44 2.08 4.67-3.11 5.36-9.16 2.94-13.83a14.6 14.6 0 00-3.8-4.14 29.69 29.69 0 012.25 2.42 9.34 9.34 0 011.73 5.18 6.83 6.83 0 01-1.77 4.7 1.42 1.42 0 01-1.56.69c.17-2.77 0-5.71-1.73-8.12a9.26 9.26 0 00-3.8-2.6 9.81 9.81 0 00-4.49-.37l-1.56.52C1 9.36-1.1 16.1.63 21.46-1.1 16.62.8 10.74 5.47 8.33c.34-.18.86-.35 1.21-.52a7.62 7.62 0 015.18 0c2.07.86 4.32 3.45 2.94 5.7a5.58 5.58 0 00-5.88-2.94 5.84 5.84 0 00-3.8 2.25 8.05 8.05 0 000 10 10.76 10.76 0 0012.1 4zm268.65 0a10.62 10.62 0 01-9.51-2.08c-.17-.34-.52-.52-.86-.86a3.83 3.83 0 01-1-3.29c3.28 3.11 8.29 4.84 12.44 2.08 4.67-3.11 5.36-9.16 2.94-13.83A14.6 14.6 0 00286 4.7a29.64 29.64 0 012.24 2.42A9.27 9.27 0 01290 12.3a6.83 6.83 0 01-1.72 4.7 1.4 1.4 0 01-1.55.69c.17-2.77 0-5.71-1.73-8.12a9.32 9.32 0 00-3.8-2.6 9.82 9.82 0 00-4.49-.34l-1.56.52c-5.53 2.24-7.6 9-5.87 14.34-1.73-4.84.17-10.72 4.83-13.13.35-.18.87-.35 1.21-.52a7.65 7.65 0 015.19 0c2.07.86 4.32 3.45 2.94 5.7a5.58 5.58 0 00-5.88-2.94 5.84 5.84 0 00-3.8 2.25 8 8 0 000 10 10.75 10.75 0 0012.1 4z"/></svg>