<svg xmlns="http://www.w3.org/2000/svg" viewBox="0 0 400 40"><path fill="#ffff7f" d="M46.64 25.77h306.72v7.43H46.64z"/><path d="M62.85 29.19h.39v.3h-9.12v-.3h.39a1.81 1.81 0 001.33-.56 1.93 1.93 0 00.59-1.34V9.72l-2.85.12q-2.82.12-2.82 2.1a1.84 1.84 0 00.55 1.36 2.1 2.1 0 001.55.56H53V14a3.19 3.19 0 01-1 .21 2.43 2.43 0 01-2.07-1 2.39 2.39 0 01-.51-1.5 2.7 2.7 0 011-2.18 5.61 5.61 0 013.2-1c.26 0 1.1-.07 2.52-.12a52 52 0 007.05-.6l.06.3a2.82 2.82 0 00-1.82.87 3.21 3.21 0 00-.5 2.02v16.29a1.92 1.92 0 00.58 1.34 1.84 1.84 0 001.34.56zm29.07-20.4a1.78 1.78 0 00-1.29.52 1.83 1.83 0 00-.57 1.28v15.48a18 18 0 00.27 3.39l.09.45h-.27L75 15.48v11.91a1.7 1.7 0 00.54 1.27 1.79 1.79 0 001.29.53h.57v.3h-9.09v-.3h.54a1.83 1.83 0 001.32-.53 1.74 1.74 0 00.54-1.3V11.79a16.86 16.86 0 00-.27-3.3L70.38 8h.27L85.8 22.47V10.62a1.86 1.86 0 00-.57-1.31 1.78 1.78 0 00-1.29-.52h-.54v-.3h9.09v.3zm16.71.93v17.61a1.91 1.91 0 001.92 1.86h.36v.3h-9.12v-.3h.39a1.8 1.8 0 001.3-.54 2 2 0 00.62-1.29V9.72h-4a2.88 2.88 0 00-3 3.06v.36h-.3V7.92a7.37 7.37 0 001.51.36 12.6 12.6 0 002 .18h12.09a12.38 12.38 0 002.4-.24 9.37 9.37 0 001.14-.3v5.22h-.3v-.36a2.88 2.88 0 00-3-3.06zm20.25.09h-1.38v17.48a1.85 1.85 0 001 1.66 2 2 0 001 .24h.39v.3h-9.12v-.3h.39a1.82 1.82 0 001.65-.93 2.1 2.1 0 00.27-.93V10.68a2 2 0 00-.59-1.34 1.8 1.8 0 00-1.33-.55h-.39v-.3H131a9.09 9.09 0 014.92 1.26 4.49 4.49 0 011.62 1.75 5.33 5.33 0 01.6 2.55 6.85 6.85 0 01-.5 2.63 5.15 5.15 0 01-1.65 2.1 5.45 5.45 0 01-2.77 1.08 5.93 5.93 0 013.06 2.64q3.24 5.19 4.8 6.18a3.85 3.85 0 001.95.51v.3h-2.94a11.22 11.22 0 01-4.26-.71 5.94 5.94 0 01-2.83-2.41 29.59 29.59 0 01-1.38-2.63c-.56-1.17-.93-2-1.11-2.5q-.81-1.8-2-2v-.3h.93a3.75 3.75 0 002.38-.81 4.25 4.25 0 001.4-2.64 5.64 5.64 0 00.12-1 5.24 5.24 0 00-1-3.56 3.37 3.37 0 00-2.55-1.12zm29.04-1.74q5.55 0 8.82 2.94A10.18 10.18 0 01170 19a10.19 10.19 0 01-3.27 8q-3.27 2.94-8.82 2.94T149.1 27a10.19 10.19 0 01-3.27-8 11.08 11.08 0 011.48-5.81 9.72 9.72 0 014.22-3.79 14.53 14.53 0 016.39-1.33zm-5.24 18a6.57 6.57 0 0010.47 0 11.56 11.56 0 001.94-7.07 13.85 13.85 0 00-.87-5.13 7.37 7.37 0 00-2.49-3.36 6.33 6.33 0 00-3.81-1.17 6.19 6.19 0 00-5.24 2.59 11.59 11.59 0 00-1.93 7.07 11.56 11.56 0 001.93 7.05zm41.96-14.76a9.88 9.88 0 013.09 7.69 9.88 9.88 0 01-3.09 7.68q-3.09 2.82-8.4 2.82h-10.89v-.3h.39a1.81 1.81 0 001.33-.56 1.93 1.93 0 00.59-1.34V10.5a1.94 1.94 0 00-.66-1.22 1.84 1.84 0 00-1.29-.49h-.39v-.3h10.89q5.34 0 8.43 2.82zm-8.79 16.92a6.24 6.24 0 003.73-1.13 7.07 7.07 0 002.42-3.21 13.05 13.05 0 00.84-4.9 11 11 0 00-1.84-6.75 6 6 0 00-5.11-2.49h-3.69v18.48zm39.78-19.44h-.51a1.62 1.62 0 00-1.1.4 1.28 1.28 0 00-.46 1V21.9a7.62 7.62 0 01-2.31 5.85 8.9 8.9 0 01-6.33 2.16q-4.74 0-7.26-2.12a7.23 7.23 0 01-2.52-5.86V10.29a1.39 1.39 0 00-.47-1.08 1.61 1.61 0 00-1.12-.42h-.48v-.3h8.64v.3h-.48a1.59 1.59 0 00-1.11.4 1.44 1.44 0 00-.48 1v11.5a7.6 7.6 0 001.56 5 5.3 5.3 0 004.29 1.86 5.54 5.54 0 004.32-1.76 6.91 6.91 0 001.62-4.75V10.23a1.33 1.33 0 00-.47-1 1.64 1.64 0 00-1.12-.4h-.48v-.3h6.27zm17.67 21.1q-5.79 0-9.09-2.92a10.09 10.09 0 01-3.3-8 10.19 10.19 0 013.27-8q3.27-2.93 9-2.92a16 16 0 017.47 1.62l.06 5.16h-.24q-1.53-5.52-7-5.52a6.79 6.79 0 00-5.6 2.56 10.92 10.92 0 00-2 7 11.45 11.45 0 002 7.05 6.56 6.56 0 005.33 2.7 7.42 7.42 0 005.31-1.74q1.86-1.8 2.58-6.18h.24l.3 5.16q-2.54 4.05-8.33 4.03zm24.93-20.17v17.61a1.91 1.91 0 001.92 1.86h.36v.3h-9.12v-.3h.39a1.8 1.8 0 001.3-.54 2 2 0 00.62-1.29V9.72h-4.05a2.88 2.88 0 00-3 3.06v.36h-.3V7.92a7.37 7.37 0 001.51.36 12.6 12.6 0 002 .18H272a12.38 12.38 0 002.4-.24 9.37 9.37 0 001.14-.3v5.22h-.3v-.36a2.88 2.88 0 00-3-3.06zm12.36 19.47a1.81 1.81 0 001.33-.56 1.93 1.93 0 00.59-1.34V10.65a1.88 1.88 0 00-.59-1.32 1.83 1.83 0 00-1.33-.54h-.39v-.3h9.12v.3h-.36a1.9 1.9 0 00-1.35.54 1.75 1.75 0 00-.57 1.32v16.64a1.79 1.79 0 00.57 1.34 1.87 1.87 0 001.35.56h.36v.3h-9.12v-.3zm26.13-21.12q5.55 0 8.82 2.94a10.17 10.17 0 013.26 8 10.19 10.19 0 01-3.26 8q-3.27 2.94-8.82 2.94T297.89 27a10.22 10.22 0 01-3.26-8 11.08 11.08 0 011.48-5.81 9.72 9.72 0 014.22-3.79 14.5 14.5 0 016.39-1.33zm-5.24 18a6.57 6.57 0 0010.47 0 11.56 11.56 0 001.93-7.07 13.85 13.85 0 00-.86-5.13 7.37 7.37 0 00-2.49-3.36 6.36 6.36 0 00-3.81-1.17 6.18 6.18 0 00-5.24 2.59 11.59 11.59 0 00-1.93 7.07 11.56 11.56 0 001.93 7.05zm45.91-17.28a1.76 1.76 0 00-1.28.52 1.79 1.79 0 00-.57 1.28v15.48a19 19 0 00.26 3.39l.09.45h-.26l-15.16-14.43v11.91a1.71 1.71 0 00.55 1.27 1.77 1.77 0 001.28.53h.58v.3h-9.09v-.3h.54a1.79 1.79 0 001.31-.53 1.71 1.71 0 00.55-1.3V11.79a16.86 16.86 0 00-.27-3.3l-.06-.49h.27l15.15 14.43V10.62a1.86 1.86 0 00-.57-1.31 1.78 1.78 0 00-1.29-.52h-.54v-.3H348v.3zM19.7 28.92a10.62 10.62 0 01-9.51-2.08c-.17-.34-.52-.52-.86-.86a3.82 3.82 0 01-1-3.28c3.28 3.11 8.3 4.83 12.44 2.07 4.67-3.11 5.36-9.16 2.94-13.83a14.6 14.6 0 00-3.8-4.14 29.64 29.64 0 012.24 2.42 9.27 9.27 0 011.73 5.18 6.83 6.83 0 01-1.73 4.67 1.4 1.4 0 01-1.55.69c.17-2.77 0-5.7-1.73-8.12-1-1.39-2.42-1.9-3.8-2.6a10.1 10.1 0 00-4.49-.34L9 9.22c-5.53 2.24-7.6 9-5.87 14.34-1.75-4.84.15-10.71 4.87-13.13.34-.18.86-.35 1.2-.52a7.65 7.65 0 015.19 0c2.07.86 4.32 3.45 2.94 5.7a5.58 5.58 0 00-5.88-2.94 5.89 5.89 0 00-3.8 2.25 8 8 0 000 10 10.75 10.75 0 0012.1 4zm372.48 0a10.6 10.6 0 01-9.5-2.08c-.17-.34-.52-.52-.86-.86a3.82 3.82 0 01-1-3.28c3.28 3.11 8.29 4.83 12.44 2.07 4.67-3.11 5.36-9.16 2.94-13.83a14.74 14.74 0 00-3.8-4.14 29.64 29.64 0 012.24 2.42 9.27 9.27 0 011.73 5.18 6.83 6.83 0 01-1.73 4.67 1.4 1.4 0 01-1.55.69c.17-2.77 0-5.7-1.73-8.12-1-1.39-2.42-1.9-3.8-2.6A10.1 10.1 0 00383 8.7l-1.56.52c-5.53 2.24-7.6 9-5.87 14.34-1.73-4.84.17-10.71 4.83-13.13.35-.18.87-.35 1.21-.52a7.65 7.65 0 015.19 0c2.07.86 4.32 3.45 2.93 5.7a5.56 5.56 0 00-5.87-2.94 5.84 5.84 0 00-3.8 2.25 8 8 0 000 10 10.74 10.74 0 0012.09 4z"/><path fill="none" opacity=".49" d="M0 0h400v40H0z"/></svg>