<svg xmlns="http://www.w3.org/2000/svg" viewBox="0 0 200 35"><path d="M38.72 5.8a7.86 7.86 0 013-.72 9.2 9.2 0 012.22.24 8.18 8.18 0 012 .8 9.46 9.46 0 011.88 1.36 16 16 0 012.85 3.6l6 11.25 8.7-15h.27L68.69 25a15.31 15.31 0 002.49 6.48A5.69 5.69 0 0076 33.91h.39v.3a12.28 12.28 0 01-3.24.45 8.38 8.38 0 01-5.91-2.55A12.93 12.93 0 0163.77 25l-1.47-8.73-5.64 9.78a7 7 0 00-1.17 3.33h-.27l-7.47-14.16-1.47 12a1.08 1.08 0 00.6 1.11 1 1 0 00.57.18h.48v.27h-6.27v-.3h.48a2.23 2.23 0 001.39-.48 2 2 0 00.77-1.28l2-14.31a22 22 0 00-3.09-4.26 5.61 5.61 0 00-4.08-2.1 2.38 2.38 0 00-.39 0zm44.88 9.57a5.06 5.06 0 01-.54-2.17 6.5 6.5 0 01.27-1.92 5.79 5.79 0 01.9-1.74A4.73 4.73 0 0186 8.11a8 8 0 013.75-.81 10.86 10.86 0 015.46 1.47 10.29 10.29 0 014.71 5.31 10.57 10.57 0 01.75 4 10.06 10.06 0 01-3.62 8.07 14.08 14.08 0 01-9.42 3.06 14.2 14.2 0 01-9.45-3.06 10 10 0 01-3.64-8 10.25 10.25 0 012.11-6.46 10.52 10.52 0 015.72-3.79l.18.27A7.87 7.87 0 0080.24 12a17.87 17.87 0 00-.78 5.37 12.24 12.24 0 002.25 7.74 7.12 7.12 0 005.89 2.88 7.24 7.24 0 005.88-2.71A11 11 0 0095.72 18a13.63 13.63 0 00-.83-4.87 7.36 7.36 0 00-2.38-3.36A5.62 5.62 0 0089 8.62a5.18 5.18 0 00-3.45 1.11 5.09 5.09 0 00-1.86 4 6.32 6.32 0 00.21 1.59zM132.32.34a11.06 11.06 0 011.26.06v.3a6.78 6.78 0 00-3.21.9 8.6 8.6 0 00-2.18 1.73q-.64.8-1 1.29a8.33 8.33 0 00-.73 1.18q-.57 1-1 2.07l-8 17.58a16.19 16.19 0 00-1.47 3.93h-.27l-9.2-19.59a3.29 3.29 0 00-1.14-1.27 2.62 2.62 0 00-1.38-.44h-.24v-.3h9.54v.3h-.3a1.14 1.14 0 00-1 .41 1.23 1.23 0 00-.31.76 2.27 2.27 0 00.12.72L117 22.36l6.21-14.49a13.8 13.8 0 013.3-5 8.65 8.65 0 015.81-2.53zm8.91 28.14h.39v.3h-9.12v-.3h.39a1.78 1.78 0 001.33-.56 1.91 1.91 0 00.59-1.33V9l-2.81.13q-2.82.12-2.82 2.1a1.86 1.86 0 00.55 1.37 2.1 2.1 0 001.55.55h.18v.18a3.19 3.19 0 01-1 .21 2.43 2.43 0 01-2.07-1 2.39 2.39 0 01-.51-1.5 2.68 2.68 0 011-2.17 5.53 5.53 0 013.2-1l2.52-.12a52 52 0 007.05-.6l.06.3a2.82 2.82 0 00-1.82.87 3.21 3.21 0 00-.55 2v16.27a1.9 1.9 0 00.58 1.33 1.8 1.8 0 001.31.56zm6.21 0a1.78 1.78 0 001.33-.56 1.91 1.91 0 00.59-1.33V9.88a1.88 1.88 0 00-1-1.56 2 2 0 00-.93-.24h-.39v-.3h8.43a11.23 11.23 0 002.31-.21 9.88 9.88 0 001.29-.33v5.25h-.33v-.36A2.93 2.93 0 00158 10a3 3 0 00-2.14-.89h-2v8.69h4.77a2.57 2.57 0 001.83-.76 2.5 2.5 0 00.72-1.82V15h.27v6.93h-.27v-.24a2.48 2.48 0 00-.72-1.83 2.55 2.55 0 00-1.8-.75h-4.8v8.43h5.85a5.47 5.47 0 003.67-1.26 7.45 7.45 0 002.21-3.57h.3l-1.41 6.12h-17.43v-.3zm-128.1-.27c-3.29 1-6.74 0-9.51-2.07-.17-.35-.52-.52-.86-.87a3.8 3.8 0 01-1-3.28c3.28 3.11 8.3 4.84 12.44 2.07C25 21 25.73 14.9 23.31 10.24a14.5 14.5 0 00-3.8-4.15c.69.87 1.55 1.38 2.25 2.42a9.36 9.36 0 011.72 5.19 6.85 6.85 0 01-1.72 4.66 1.41 1.41 0 01-1.56.69c.17-2.76 0-5.7-1.73-8.12a9.33 9.33 0 00-3.8-2.59A10 10 0 0010.18 8l-1.56.52c-5.53 2.25-7.6 9-5.87 14.34C1 18 2.92 12.14 7.59 9.72c.34-.17.86-.34 1.21-.52a7.62 7.62 0 015.2 0c2.07.87 4.32 3.46 2.94 5.7A5.57 5.57 0 0011 12a5.83 5.83 0 00-3.8 2.24 8.06 8.06 0 000 10 10.73 10.73 0 0012.1 4zm173.2 0a10.59 10.59 0 01-9.5-2.07c-.17-.35-.52-.52-.86-.87a3.8 3.8 0 01-1-3.28c3.28 3.11 8.29 4.84 12.44 2.07 4.67-3.11 5.36-9.16 2.94-13.82a14.65 14.65 0 00-3.8-4.15A31.38 31.38 0 01195 8.51a9.3 9.3 0 011.73 5.19 6.81 6.81 0 01-1.73 4.66 1.39 1.39 0 01-1.55.69c.17-2.76 0-5.7-1.73-8.12a9.4 9.4 0 00-3.8-2.59 10 10 0 00-4.53-.34l-1.56.52c-5.53 2.25-7.6 9-5.88 14.34-1.72-4.83.18-10.71 4.84-13.13.35-.17.87-.34 1.21-.52a7.65 7.65 0 015.19 0c2.07.87 4.32 3.46 2.93 5.7a5.55 5.55 0 00-5.87-2.91 5.78 5.78 0 00-3.8 2.24 8.06 8.06 0 000 10 10.72 10.72 0 0012.09 4z"/><path fill="none" d="M0 0h200v35H0z"/></svg>