<svg xmlns="http://www.w3.org/2000/svg" viewBox="0 0 192.27 32.97"><path d="M33.94 4.11a7.86 7.86 0 013-.72 9.2 9.2 0 012.22.24 8.13 8.13 0 012 .79A9.51 9.51 0 0143 5.79a16 16 0 012.85 3.6l6 11.25 8.7-15h.27l3.12 17.64a15.31 15.31 0 002.49 6.48 5.69 5.69 0 004.86 2.43h.39v.3a12.28 12.28 0 01-3.24.45 8.38 8.38 0 01-5.91-2.55A12.93 12.93 0 0159 23.31l-1.47-8.73-5.64 9.78a7 7 0 00-1.17 3.33h-.27L43 13.53l-1.47 12a1.08 1.08 0 00.6 1.11 1 1 0 00.57.18h.48v.27h-6.3v-.3h.48a2.3 2.3 0 001.39-.46 2 2 0 00.77-1.28l2-14.31a22 22 0 00-3.09-4.26 5.61 5.61 0 00-4.08-2.1 2.38 2.38 0 00-.39 0zM96.16 0H97v.3a5.85 5.85 0 00-5.1 3.36 11.24 11.24 0 00-1 5.1V19.5a7.66 7.66 0 01-2.43 5.89q-2.37 2.12-6.77 2.12a10.53 10.53 0 01-7-2.18 7.08 7.08 0 01-2.58-5.8V7.86a1.36 1.36 0 00-.47-1.05 1.61 1.61 0 00-1.12-.42H70v-.3h8.64v.3h-.48a1.51 1.51 0 00-1.38.72 1.32 1.32 0 00-.21.72v11.46a7.32 7.32 0 001.65 5 5.53 5.53 0 004.35 1.86h.06a5.88 5.88 0 004.37-1.7 6.51 6.51 0 001.71-4.77V8.79a9.21 9.21 0 012.14-6.42A6.87 6.87 0 0196.16 0zm3.24 18.57a7.33 7.33 0 00-1.2 3.93 6.29 6.29 0 003.8 5.58 7.4 7.4 0 002.93.57 6.55 6.55 0 002.85-.6 4.17 4.17 0 002.52-4 4.34 4.34 0 00-.71-2.22 6.7 6.7 0 00-2.11-2.1l-5.1-3.42a5.52 5.52 0 01-3-4.8v-.6a5.36 5.36 0 011.84-3.77 6.59 6.59 0 014.46-1.45 34.61 34.61 0 014.14.3h1.86l-.39 4.41h-.27a3.12 3.12 0 00-1.2-2.5 4.79 4.79 0 00-3.09-1 4 4 0 00-3.39 1.41 2.64 2.64 0 00-.51 1.56 2.12 2.12 0 00.51 1.43 7.58 7.58 0 001.66 1.3l5.61 3.66a8.77 8.77 0 012.67 2.61 6.63 6.63 0 011.14 3.63 7.33 7.33 0 01-.5 2.54 7 7 0 01-1.62 2.47 8.48 8.48 0 01-2.89 1.86 10.32 10.32 0 01-3.92.72 9.69 9.69 0 01-3.88-.75 6.68 6.68 0 01-4.08-4.71 6.16 6.16 0 01-.18-1.5 7.59 7.59 0 011.77-4.77zm30.99 8.22h.38v.3h-9.11v-.3h.39a1.79 1.79 0 001.33-.56 2 2 0 00.62-1.33V7.32l-2.85.12c-1.89.08-2.82.78-2.82 2.1a1.86 1.86 0 00.55 1.37 2.09 2.09 0 001.54.55h.19v.18a3.19 3.19 0 01-1 .21 2.42 2.42 0 01-2.06-1 2.4 2.4 0 01-.52-1.5 2.73 2.73 0 011-2.18 5.58 5.58 0 013.2-1l2.51-.12a51.8 51.8 0 007.05-.6l.07.3a2.79 2.79 0 00-1.82.87 3.14 3.14 0 00-.55 1.95V24.9a1.86 1.86 0 00.58 1.33 1.78 1.78 0 001.32.56zm28.79-11.43c.06.6.09 1.35.09 2.26a12.53 12.53 0 01-.54 3.34 8.08 8.08 0 01-1.95 3.46 10.3 10.3 0 01-7.92 3.09q-6.12 0-9.66-3a9.91 9.91 0 01-3.53-7.9 9.86 9.86 0 013.58-7.9q3.58-3 9.47-3a19.94 19.94 0 014.29.45 13.42 13.42 0 013.38 1.17l.06 5.16h-.23a7.63 7.63 0 00-1.71-3.21 7.62 7.62 0 00-5.83-2.31 7.37 7.37 0 00-5.89 2.61 10.26 10.26 0 00-2.24 6.92 10.34 10.34 0 002.33 7 8.25 8.25 0 006.4 2.79 9.1 9.1 0 007-2.82 10.78 10.78 0 002.62-7.65v-.42zM17.22 28.32a10.62 10.62 0 01-9.51-2.08c-.17-.34-.51-.52-.86-.86a3.86 3.86 0 01-1-3.29c3.29 3.11 8.3 4.84 12.44 2.08 4.67-3.11 5.36-9.16 2.94-13.83a14.6 14.6 0 00-3.8-4.14 29.69 29.69 0 012.25 2.42 9.34 9.34 0 011.73 5.18 6.83 6.83 0 01-1.73 4.67 1.42 1.42 0 01-1.56.69c.17-2.77 0-5.71-1.73-8.12a9.26 9.26 0 00-3.8-2.6 9.81 9.81 0 00-4.53-.34l-1.56.52C1 10.86-1.1 17.6.63 23-1.1 18.12.8 12.24 5.47 9.83c.34-.18.86-.35 1.21-.52a7.62 7.62 0 015.18 0c2.07.86 4.32 3.45 2.94 5.7a5.58 5.58 0 00-5.88-2.94 5.84 5.84 0 00-3.8 2.25 8.05 8.05 0 000 10 10.76 10.76 0 0012.1 4zm169.72 0a10.62 10.62 0 01-9.51-2.08c-.17-.34-.52-.52-.86-.86a3.83 3.83 0 01-1-3.29c3.28 3.11 8.3 4.84 12.44 2.08 4.67-3.11 5.36-9.16 2.94-13.83a14.6 14.6 0 00-3.8-4.14 31.57 31.57 0 012.25 2.42 9.33 9.33 0 011.72 5.18 6.82 6.82 0 01-1.72 4.67 1.42 1.42 0 01-1.56.69c.17-2.77 0-5.71-1.73-8.12a9.26 9.26 0 00-3.8-2.6 9.81 9.81 0 00-4.49-.34l-1.56.52c-5.53 2.24-7.6 9-5.87 14.34-1.73-4.84.17-10.72 4.84-13.13.34-.18.86-.35 1.21-.52a7.62 7.62 0 015.18 0c2.07.86 4.32 3.45 2.94 5.7a5.58 5.58 0 00-5.88-2.94 5.84 5.84 0 00-3.8 2.25 8 8 0 000 10 10.76 10.76 0 0012.1 4z"/></svg>