<svg xmlns="http://www.w3.org/2000/svg" viewBox="0 0 200.4 31.62"><path d="M44.37 11.73a5.07 5.07 0 01-.54-2.18 6.55 6.55 0 01.27-1.92 5.79 5.79 0 01.9-1.74 4.81 4.81 0 011.77-1.42 8 8 0 013.75-.81A10.86 10.86 0 0156 5.13a10.29 10.29 0 014.71 5.31 10.57 10.57 0 01.75 4 10 10 0 01-3.61 8.07 14.08 14.08 0 01-9.42 3.06A14.2 14.2 0 0139 22.5a10 10 0 01-3.65-8A10.26 10.26 0 0137.43 8a10.49 10.49 0 015.71-3.74l.18.27A7.87 7.87 0 0041 8.31a17.87 17.87 0 00-.78 5.37 12.24 12.24 0 002.25 7.74 7.13 7.13 0 005.9 2.88 7.25 7.25 0 005.88-2.72 10.93 10.93 0 002.23-7.18 13.69 13.69 0 00-.82-4.88 7.4 7.4 0 00-2.39-3.35A5.62 5.62 0 0049.8 5a5.18 5.18 0 00-3.45 1.11 5.09 5.09 0 00-1.86 4.05 6.32 6.32 0 00.21 1.59zm48.98 16.54a9 9 0 001.12.54 6.18 6.18 0 001.22.36 7.3 7.3 0 001.29.11 6.19 6.19 0 001.45-.18l.12.3a7.74 7.74 0 01-3.39.81q-3.93 0-8-4.35L72.93 10.77V23a1.7 1.7 0 00.54 1.27 1.75 1.75 0 001.29.53h.57v.3h-9.09v-.3h.54a1.79 1.79 0 001.32-.53 1.74 1.74 0 00.54-1.3V6.18a30.85 30.85 0 00-2.22-2.36c-.5-.44-.94-.82-1.33-1.12A9.18 9.18 0 0064 2a6.46 6.46 0 00-2-.84A9.32 9.32 0 0060.5 1a4.49 4.49 0 00-1.5.26L58.92 1a6.66 6.66 0 013.39-1q3.78 0 8 4.5l13.42 14.25V6.27A1.86 1.86 0 0083.16 5a1.82 1.82 0 00-1.29-.52h-.54v-.3h9.09v.3h-.57A1.86 1.86 0 0088 6.24v17.07l.48.48c.12.12.31.33.56.61s.47.54.67.75l.77.8q.47.48.87.84t1 .78a10.06 10.06 0 001 .7zm40.39 2.36a8.37 8.37 0 01-6.63.54 11.94 11.94 0 01-6.11-4.86 21 21 0 01-2.37-4.59l-1-2.55h-7.08L109 23a1.86 1.86 0 00-.15.63 1.47 1.47 0 00.11.52 1.07 1.07 0 00.45.51 1.36 1.36 0 00.76.23h.24v.3H104v-.3h.27a2.56 2.56 0 001.37-.41 3.07 3.07 0 001.12-1.21L113.4 8a9.11 9.11 0 00-2.49-3.63 3.54 3.54 0 00-2.11-.84 5.74 5.74 0 00-1.88.3l-.06-.3A9.06 9.06 0 01111 2.37a6.13 6.13 0 014.41 1.92 16.3 16.3 0 013.39 5.46l4.35 10.74q2.46 6.09 5 8.37a6.14 6.14 0 002.16 1.29 6.31 6.31 0 001.88.36 6.06 6.06 0 001.48-.18zm-22.68-12.75h6.12l-2.1-5.55-.42-1.16c-.18-.49-.3-.83-.36-1zM141 24.84h.39v.3h-9.09v-.3h.39a1.8 1.8 0 001.34-.56 1.9 1.9 0 00.58-1.33V5.37l-2.85.12q-2.82.12-2.82 2.1A1.89 1.89 0 00129.5 9a2.07 2.07 0 001.54.55h.18v.18a3.19 3.19 0 01-1 .21 2.43 2.43 0 01-2.07-1 2.39 2.39 0 01-.51-1.5 2.71 2.71 0 011-2.18 5.58 5.58 0 013.19-1l2.52-.12a52 52 0 007-.6l.06.3a2.79 2.79 0 00-1.81.87 3.21 3.21 0 00-.56 2V23a1.91 1.91 0 00.59 1.33 1.78 1.78 0 001.37.51zm37.14 5.4a11 11 0 01-5 1.17 12.05 12.05 0 01-4.26-.72 14.49 14.49 0 01-7.05-6q-.75-1.08-2.79-4.14t-2.64-3.9q-1-1.65-1.68-1.8v-.3h.6a5.88 5.88 0 002.82-.69q2-1.08 2-4a4.36 4.36 0 00-1.2-3.29A4 4 0 00156 5.46h-2.28V23a1.77 1.77 0 00.57 1.33 1.84 1.84 0 001.35.56h.39v.3h-9.12v-.3h.39a1.95 1.95 0 001.95-1.89V6.33a1.91 1.91 0 00-.58-1.33 1.8 1.8 0 00-1.34-.56h-.39v-.3h10.29a9.14 9.14 0 016 1.77 4.76 4.76 0 011.68 3.9 5.42 5.42 0 01-1.63 4.09 5.21 5.21 0 01-3.74 1.58h-.39a9 9 0 012.06 1.47q.82.81 1.44 1.53c.41.48.76.9 1 1.27l1.15 1.47 1.5 1.91c.52.66 1.1 1.33 1.73 2a18.84 18.84 0 002.1 2 13.09 13.09 0 002.35 1.53 12.53 12.53 0 005.61 1.32zM17.22 26.37a10.62 10.62 0 01-9.51-2.08c-.17-.34-.51-.52-.86-.86a3.86 3.86 0 01-1-3.29c3.29 3.11 8.3 4.84 12.44 2.08 4.67-3.11 5.36-9.16 2.94-13.83a14.6 14.6 0 00-3.8-4.14 29.69 29.69 0 012.25 2.42 9.34 9.34 0 011.73 5.18 6.83 6.83 0 01-1.73 4.67 1.42 1.42 0 01-1.56.69c.17-2.77 0-5.71-1.73-8.12a9.26 9.26 0 00-3.8-2.6 9.81 9.81 0 00-4.49-.34l-1.6.52C1 8.91-1.1 15.65.63 21-1.1 16.17.8 10.29 5.47 7.88c.34-.18.86-.35 1.21-.52a7.62 7.62 0 015.18 0c2.07.86 4.32 3.45 2.94 5.7a5.58 5.58 0 00-5.88-2.94 5.84 5.84 0 00-3.8 2.25 8.05 8.05 0 000 10 10.76 10.76 0 0012.1 4zm177.84 0a10.6 10.6 0 01-9.5-2.08c-.17-.34-.52-.52-.87-.86a3.83 3.83 0 01-1-3.29c3.28 3.11 8.29 4.84 12.44 2.08 4.66-3.11 5.36-9.16 2.94-13.83a14.74 14.74 0 00-3.8-4.14 29.64 29.64 0 012.24 2.42 9.27 9.27 0 011.73 5.18 6.83 6.83 0 01-1.73 4.67 1.4 1.4 0 01-1.55.69c.17-2.77 0-5.71-1.73-8.12a9.32 9.32 0 00-3.8-2.6 9.86 9.86 0 00-4.5-.34l-1.55.52c-5.53 2.24-7.6 9-5.88 14.34-1.72-4.84.18-10.72 4.84-13.13.35-.18.87-.35 1.21-.52a7.65 7.65 0 015.19 0c2.07.86 4.32 3.45 2.93 5.7a5.56 5.56 0 00-5.87-2.94 5.8 5.8 0 00-3.8 2.25 8 8 0 000 10 10.74 10.74 0 0012.09 4z" data-name="letter"/></svg>