<svg xmlns="http://www.w3.org/2000/svg" viewBox="0 0 189.16 29.25"><g data-name="letter"><path d="M65.77 27.87a11 11 0 01-5 1.17 12.05 12.05 0 01-4.26-.72 14.49 14.49 0 01-7.05-6q-.75-1.08-2.79-4.14t-2.64-3.9q-1-1.65-1.68-1.8v-.3H43a5.88 5.88 0 002.82-.69q2-1.08 2-4a4.36 4.36 0 00-1.2-3.29 4 4 0 00-2.88-1.15h-2.36v17.53a1.79 1.79 0 00.62 1.33 1.84 1.84 0 001.35.56h.39v.3h-9.17v-.3H35a1.95 1.95 0 001.92-1.86V4a2 2 0 00-.59-1.34A1.8 1.8 0 0035 2.07h-.39v-.3h10.25a9.14 9.14 0 016 1.77 4.76 4.76 0 011.68 3.9 5.42 5.42 0 01-1.64 4.09 5.23 5.23 0 01-3.73 1.58h-.39a8.91 8.91 0 012 1.47c.55.54 1 1 1.45 1.53s.75.9 1 1.27l1.16 1.47L54 20.73c.52.66 1.09 1.33 1.72 2a18.84 18.84 0 002.1 2 13.15 13.15 0 002.36 1.53 12.53 12.53 0 005.61 1.32z"/><path d="M87.13 28.26a8.37 8.37 0 01-6.63.54 11.94 11.94 0 01-6.15-4.86A21 21 0 0172 19.35l-1-2.55h-7.06l-1.59 3.78a1.86 1.86 0 00-.15.63 1.49 1.49 0 00.1.52 1.07 1.07 0 00.45.51 1.39 1.39 0 00.77.23h.24v.3h-6.42v-.3h.27a2.62 2.62 0 001.39-.41 3.16 3.16 0 001.13-1.21l6.66-15.27A9.11 9.11 0 0064.3 2a3.57 3.57 0 00-2.12-.84 5.68 5.68 0 00-1.87.3l-.06-.3A9.06 9.06 0 0164.39 0a6.13 6.13 0 014.41 1.92 16.3 16.3 0 013.39 5.46l4.35 10.74q2.46 6.09 5 8.37a6.14 6.14 0 002.16 1.29 6.25 6.25 0 001.87.36A6.14 6.14 0 0087.1 28zM64.45 15.51h6.12L68.47 10l-.42-1.2c-.18-.49-.3-.83-.36-1zM88.51 1.74h6.86q5.31.06 8.4 2.86a9.82 9.82 0 013.09 7.65 9.87 9.87 0 01-3.08 7.75q-3.09 2.82-8.4 2.82H84.49v-.3h.39a1.83 1.83 0 001.3-.53 1.91 1.91 0 00.62-1.27V3.12a8.84 8.84 0 00-5 1.56A6.22 6.22 0 0080.54 6a11.38 11.38 0 00-.91 1.59l-.3-.12a6.51 6.51 0 013-4.34 12.45 12.45 0 016.18-1.39zM100.1 19a11 11 0 001.9-6.73 10.84 10.84 0 00-1.88-6.72 6 6 0 00-5-2.46H91.3v18.42H95a6 6 0 005.1-2.51zm23.18 3.47h.39v.3h-9.12v-.3h.39a1.78 1.78 0 001.33-.56 1.92 1.92 0 00.59-1.33V3l-2.86.12q-2.82.12-2.82 2.1a1.84 1.84 0 00.55 1.36 2.06 2.06 0 001.55.56h.18v.18a3.19 3.19 0 01-1 .21 2.43 2.43 0 01-2.07-1 2.39 2.39 0 01-.51-1.5 2.7 2.7 0 011-2.18 5.61 5.61 0 013.2-1l2.52-.12a52 52 0 007-.6l.06.3a2.82 2.82 0 00-1.82.87 3.21 3.21 0 00-.55 2v16.28a1.91 1.91 0 00.58 1.33 1.8 1.8 0 001.41.56zM137.8 9.36a5.07 5.07 0 01-.54-2.18 6.55 6.55 0 01.27-1.92 5.79 5.79 0 01.9-1.74 4.81 4.81 0 011.77-1.42 8 8 0 013.8-.81 10.86 10.86 0 015.46 1.47 10.29 10.29 0 014.71 5.31 10.57 10.57 0 01.75 4 10.06 10.06 0 01-3.62 8.07 14.08 14.08 0 01-9.42 3.06 14.2 14.2 0 01-9.45-3.06 10 10 0 01-3.64-8 10.3 10.3 0 012.11-6.47 10.5 10.5 0 015.72-3.73l.18.27a7.87 7.87 0 00-2.31 3.78 17.87 17.87 0 00-.78 5.37 12.24 12.24 0 002.25 7.74 7.12 7.12 0 005.89 2.88 7.25 7.25 0 005.88-2.72 10.94 10.94 0 002.19-7.26 13.69 13.69 0 00-.83-4.88 7.42 7.42 0 00-2.38-3.36 5.61 5.61 0 00-3.48-1.18 5.18 5.18 0 00-3.45 1.11 5.09 5.09 0 00-1.86 4 6.32 6.32 0 00.21 1.59zM17.22 24a10.62 10.62 0 01-9.51-2.08c-.17-.34-.51-.52-.86-.86a3.86 3.86 0 01-1-3.29c3.29 3.11 8.3 4.84 12.44 2.08 4.67-3.11 5.36-9.16 2.94-13.83a14.6 14.6 0 00-3.8-4.14 29.69 29.69 0 012.21 2.42 9.34 9.34 0 011.73 5.18 6.83 6.83 0 01-1.73 4.67 1.42 1.42 0 01-1.56.69c.17-2.77 0-5.71-1.73-8.12a9.26 9.26 0 00-3.8-2.6 9.81 9.81 0 00-4.49-.34L6.5 4.3C1 6.54-1.1 13.28.63 18.64-1.1 13.8.8 7.92 5.47 5.51c.34-.18.86-.35 1.21-.52a7.62 7.62 0 015.18 0c2.07.86 4.32 3.45 2.94 5.7a5.58 5.58 0 00-5.88-2.94A5.84 5.84 0 005.12 10a8.05 8.05 0 000 10 10.76 10.76 0 0012.1 4zm166.6 0a10.62 10.62 0 01-9.51-2.08c-.17-.34-.51-.52-.86-.86a3.86 3.86 0 01-1-3.29c3.29 3.11 8.3 4.84 12.44 2.08 4.67-3.11 5.36-9.16 2.94-13.83A14.6 14.6 0 00184 1.88a29.69 29.69 0 012.25 2.42A9.34 9.34 0 01188 9.48a6.83 6.83 0 01-1.73 4.67 1.42 1.42 0 01-1.56.69c.17-2.77 0-5.71-1.73-8.12a9.26 9.26 0 00-3.8-2.6 9.81 9.81 0 00-4.49-.34l-1.56.52c-5.53 2.24-7.6 9-5.87 14.34-1.73-4.84.17-10.72 4.84-13.13.34-.18.86-.35 1.21-.52a7.62 7.62 0 015.18 0c2.07.86 4.32 3.45 2.94 5.7a5.58 5.58 0 00-5.88-2.94 5.84 5.84 0 00-3.8 2.25 8.05 8.05 0 000 10 10.76 10.76 0 0012.1 4z"/></g></svg>