<svg xmlns="http://www.w3.org/2000/svg" viewBox="0 0 206.76 28.74"><path d="M30 13.65a7 7 0 00-1.15 3.77 6 6 0 003.63 5.34 7 7 0 002.81.55 6.35 6.35 0 002.71-.57 4 4 0 002.41-3.86 4.19 4.19 0 00-.67-2.12 6.49 6.49 0 00-2-2l-4.89-3.28A5.28 5.28 0 0130 6.87v-.58a5.16 5.16 0 011.77-3.6A6.28 6.28 0 0136 1.29a33.62 33.62 0 014 .29h1.78l-.37 4.23h-.26A3 3 0 0040 3.41a4.55 4.55 0 00-3-.91 3.78 3.78 0 00-3.25 1.35 2.51 2.51 0 00-.49 1.5 2 2 0 00.49 1.36 7.12 7.12 0 001.55 1.22l5.38 3.51a8.5 8.5 0 012.56 2.5 6.41 6.41 0 011.09 3.48 6.9 6.9 0 01-.48 2.43 6.61 6.61 0 01-1.55 2.37A8.12 8.12 0 0139.57 24a9.86 9.86 0 01-3.75.69 9.33 9.33 0 01-3.73-.69 6.4 6.4 0 01-3.91-4.51A6.17 6.17 0 0128 18a7.29 7.29 0 011.7-4.57zm27.19-2.76a1.94 1.94 0 002 1.15A3.11 3.11 0 0062 10.32a5.66 5.66 0 00.72-3 4.94 4.94 0 00-1.41-3.91 4 4 0 00-2.7-.92 5.32 5.32 0 00-.78.06l-1.93.29v16.88a1.71 1.71 0 00.51 1.28 1.78 1.78 0 001.29.52h.38v.29h-8.74v-.29h.37A1.74 1.74 0 0051 21a1.79 1.79 0 00.56-1.29V4.4a1.77 1.77 0 00-.44-1.18 1.62 1.62 0 00-1.22-.43h-.52l-.06-.26c1.63-.14 3.34-.36 5.13-.68s3-.51 3.54-.59a13.93 13.93 0 011.72-.11 13.67 13.67 0 012.11.19 8.33 8.33 0 012.53.83 5.15 5.15 0 012.1 1.91 5.88 5.88 0 01.84 3.12 7 7 0 01-.64 3.06 5.76 5.76 0 01-4.14 3.22 6 6 0 01-1.36.17 6.75 6.75 0 01-1.22-.11 4.2 4.2 0 01-2-.81 2.74 2.74 0 01-1-1.75zm15.58 10.64A1.75 1.75 0 0074 21a1.85 1.85 0 00.57-1.28v-16a1.83 1.83 0 00-1-1.5 1.93 1.93 0 00-.8-.22h-.38v-.3h8.08a10.3 10.3 0 002.21-.21 10.48 10.48 0 001.24-.31v5h-.32v-.32a2.77 2.77 0 00-.73-2.08 2.91 2.91 0 00-2.06-.85h-1.89v8.37h4.57a2.45 2.45 0 001.75-.74 2.39 2.39 0 00.69-1.74v-.25h.26v6.64h-.26V15a2.39 2.39 0 00-.69-1.76 2.43 2.43 0 00-1.72-.72h-4.6v8.08h5.6A5.23 5.23 0 0088 19.37 7.09 7.09 0 0090.16 16h.28l-1.35 5.87h-16.7v-.29zm43.77-10.95a21.51 21.51 0 01.09 2.17 12.24 12.24 0 01-.52 3.19 7.8 7.8 0 01-1.87 3.32 9.88 9.88 0 01-7.59 3q-5.87 0-9.25-2.89a9.47 9.47 0 01-3.4-7.6 9.43 9.43 0 013.44-7.57 13.55 13.55 0 019.07-2.91 19.47 19.47 0 014.11.43 12.91 12.91 0 013.25 1.13l.06 4.94h-.23a7.25 7.25 0 00-1.64-3.08 7.29 7.29 0 00-5.58-2.21 7.07 7.07 0 00-5.65 2.5 9.89 9.89 0 00-2.14 6.63 9.9 9.9 0 002.23 6.71 8 8 0 006.14 2.66 8.71 8.71 0 006.72-2.7 10.35 10.35 0 002.5-7.33v-.4zm15.01 10.95h.37v.29h-8.74v-.29h.38a1.75 1.75 0 001.27-.53 1.85 1.85 0 00.57-1.28V2.87l-2.74.13q-2.7.12-2.7 2a1.79 1.79 0 00.53 1.31 2 2 0 001.49.53h.17V7a2.93 2.93 0 01-1 .2 2.31 2.31 0 01-2-.92 2.25 2.25 0 01-.49-1.43 2.6 2.6 0 011-2.09 5.43 5.43 0 013.06-1c.25 0 1-.06 2.42-.11a50.13 50.13 0 006.75-.58l.06.29a2.65 2.65 0 00-1.74.83 3.06 3.06 0 00-.53 1.87v15.66a1.84 1.84 0 00.56 1.28 1.75 1.75 0 001.31.53zm32.13 5.55a8 8 0 01-6.35.51 11.42 11.42 0 01-5.89-4.65 20.2 20.2 0 01-2.27-4.4l-.92-2.44h-6.79l-1.52 3.62a1.67 1.67 0 00-.14.6 1.44 1.44 0 00.1.51 1 1 0 00.43.48 1.26 1.26 0 00.73.22h.23v.29h-6.15v-.29h.26a2.51 2.51 0 001.31-.39 3 3 0 001.07-1.14l6.41-14.63a8.65 8.65 0 00-2.38-3.48 3.41 3.41 0 00-2-.81 5.46 5.46 0 00-1.79.29l-.06-.29a8.65 8.65 0 014-1.06 5.86 5.86 0 014.23 1.84 15.61 15.61 0 013.25 5.23l4.17 10.29q2.36 5.84 4.83 8a6 6 0 003.79 1.62 6.07 6.07 0 001.42-.17zM142 14.86h5.87l-2-5.32c-.09-.27-.23-.63-.4-1.1s-.29-.8-.34-1zm41.6 10.95a8.81 8.81 0 004.83-1.18l.2.23a8.5 8.5 0 01-6.15 3.8c-.52.05-1 .08-1.34.08h-1.29a11.74 11.74 0 01-2.06-.39c-.88-.23-1.65-.46-2.32-.7s-1.45-.56-2.33-.95-1.61-.74-2.19-1l-2-1.06c-.8-.41-1.49-.76-2.09-1s-1.16-.53-1.72-.75a12.85 12.85 0 00-4.83-.94v-.29h.37a1.74 1.74 0 001.28-.52 1.79 1.79 0 00.56-1.29V3.79a1.83 1.83 0 00-.56-1.29 1.78 1.78 0 00-1.33-.5h-.37v-.3H169V2h-.29a1.81 1.81 0 00-1.64.89 1.69 1.69 0 00-.25.92v16.66a1.77 1.77 0 00.37 1.3 2.2 2.2 0 00.83.51q10.78 3.53 15.58 3.53zM16.5 21.27a10.17 10.17 0 01-9.11-2c-.16-.33-.5-.49-.83-.82a3.68 3.68 0 01-1-3.15c3.15 3 8 4.64 11.92 2 4.47-3 5.13-8.78 2.82-13.25a14 14 0 00-3.65-4 28.91 28.91 0 012.17 2.35 8.92 8.92 0 011.65 5 6.55 6.55 0 01-1.65 4.47 1.35 1.35 0 01-1.49.67c.16-2.65 0-5.47-1.66-7.79A9 9 0 0012 2.23a9.45 9.45 0 00-4.28-.33l-1.49.5C.93 4.55-1 11 .6 16.14-1 11.5.77 5.87 5.24 3.55c.33-.16.83-.33 1.16-.49a7.29 7.29 0 015 0c2 .83 4.14 3.31 2.82 5.46a5.33 5.33 0 00-5.67-2.81 5.55 5.55 0 00-3.64 2.15 7.71 7.71 0 000 9.6 10.29 10.29 0 0011.59 3.81zm185.15 0a10.17 10.17 0 01-9.11-2c-.16-.33-.49-.49-.82-.82a3.68 3.68 0 01-1-3.15c3.15 3 7.95 4.64 11.92 2 4.47-3 5.14-8.78 2.82-13.25a14 14 0 00-3.65-4A27.2 27.2 0 01204 2.4a8.92 8.92 0 011.65 5 6.5 6.5 0 01-1.65 4.43 1.34 1.34 0 01-1.49.67c.16-2.65 0-5.47-1.66-7.79a9 9 0 00-3.64-2.48 9.45 9.45 0 00-4.31-.33l-1.49.5c-5.29 2.15-7.28 8.61-5.62 13.74-1.66-4.64.16-10.27 4.63-12.59.33-.16.83-.33 1.16-.49a7.32 7.32 0 015 0c2 .83 4.14 3.31 2.81 5.46a5.33 5.33 0 00-5.63-2.81 5.55 5.55 0 00-3.64 2.15 7.71 7.71 0 000 9.6 10.29 10.29 0 0011.59 3.81z"/></svg>