<svg xmlns="http://www.w3.org/2000/svg" viewBox="0 0 200 35"><path d="M46.37 17.23a7.33 7.33 0 00-1.2 3.93 5.89 5.89 0 001.59 4A5.82 5.82 0 0049 26.74a7.31 7.31 0 002.92.57 6.55 6.55 0 002.85-.6 4.17 4.17 0 002.52-4 4.41 4.41 0 00-.7-2.22 6.85 6.85 0 00-2.12-2.1L49.34 15a5.52 5.52 0 01-3-4.8v-.6a5.36 5.36 0 011.84-3.76 6.55 6.55 0 014.52-1.51 34.61 34.61 0 014.14.3h1.86L58.31 9H58a3.13 3.13 0 00-1.2-2.5 4.77 4.77 0 00-3.09-1A4 4 0 0050.36 7a2.64 2.64 0 00-.51 1.56 2.12 2.12 0 00.51 1.44A7.28 7.28 0 0052 11.26l5.61 3.66a8.77 8.77 0 012.67 2.61 6.63 6.63 0 011.14 3.63 7.33 7.33 0 01-.5 2.54 7 7 0 01-1.62 2.47A8.48 8.48 0 0156.39 28a10.31 10.31 0 01-3.91.72 9.71 9.71 0 01-3.89-.72 6.68 6.68 0 01-4.08-4.71 6.16 6.16 0 01-.18-1.5A7.59 7.59 0 0146.1 17zm18.12-5.49a4.17 4.17 0 01-1.47-3 3.23 3.23 0 01.81-2.19 5.32 5.32 0 014.29-1.8h14.13a14.86 14.86 0 002.31-.22 7.48 7.48 0 001.26-.32V9.4h-.3V9a2.88 2.88 0 00-3-3.06h-4v17.65a1.89 1.89 0 001 1.62 1.84 1.84 0 00.93.24h.39v.3h-9.18v-.3h.39A1.93 1.93 0 0074 23.62V6h-5.88a4.9 4.9 0 00-2.12.43 3 3 0 00-1.89 2.82 4.54 4.54 0 00.72 2.34zm82.24 19.11a11 11 0 01-5 1.17 12.05 12.05 0 01-4.26-.72 14.49 14.49 0 01-7.05-6q-.75-1.08-2.79-4.14T125 17.29q-1-1.65-1.68-1.8v-.3h.6a5.88 5.88 0 002.82-.69q2-1.08 1.95-4a4.37 4.37 0 00-1.2-3.29 4 4 0 00-2.88-1.15h-2.28v17.5a1.77 1.77 0 00.57 1.33 1.84 1.84 0 001.35.56h.39v.3h-9.12v-.3h.39a1.95 1.95 0 001.92-1.86V6.94a1.92 1.92 0 00-.59-1.33 1.81 1.81 0 00-1.33-.56h-.39v-.3h10.29a9.14 9.14 0 016 1.77 4.76 4.76 0 011.68 3.9 5.42 5.42 0 01-1.64 4.09 5.19 5.19 0 01-3.73 1.58h-.39a8.91 8.91 0 012 1.47q.83.81 1.44 1.53c.41.48.76.9 1.05 1.27s.68.87 1.16 1.47l1.5 1.91c.52.66 1.09 1.33 1.72 2a19.75 19.75 0 002.1 2 13.15 13.15 0 002.36 1.53 12.53 12.53 0 005.61 1.32zM137.1 3h1.51a11.12 11.12 0 012.73.44 10.61 10.61 0 013.14 1.36 13.35 13.35 0 012.64 2.2 17.84 17.84 0 013.48 5.91 19.55 19.55 0 014.68-7.86A6.89 6.89 0 01160.11 3h.24v.3a4.81 4.81 0 00-3.11 1.57 15.63 15.63 0 00-2.8 3.74 30 30 0 00-2 4.56 17.33 17.33 0 00-1 4.11v6.27a1.91 1.91 0 001.92 1.89h.39v.3h-9.12v-.3h.37a1.78 1.78 0 001.33-.56 1.91 1.91 0 00.59-1.33v-6.3a20.73 20.73 0 00-2.16-6.87 15.18 15.18 0 00-4.65-6 5.64 5.64 0 00-3-1.11zM22.94 27a10.6 10.6 0 01-9.5-2.08c-.17-.34-.52-.52-.87-.86a3.86 3.86 0 01-1-3.29c3.28 3.12 8.29 4.84 12.44 2.08 4.67-3.11 5.36-9.16 2.94-13.83a14.74 14.74 0 00-3.8-4.14 29.64 29.64 0 012.24 2.42 9.27 9.27 0 011.73 5.18 6.83 6.83 0 01-1.73 4.67 1.4 1.4 0 01-1.55.69c.17-2.77 0-5.71-1.73-8.12a9.32 9.32 0 00-3.8-2.6 10.14 10.14 0 00-4.5-.34l-1.55.52c-5.53 2.24-7.6 9-5.88 14.34-1.72-4.84.18-10.71 4.84-13.13.35-.18.87-.35 1.21-.52a7.65 7.65 0 015.19 0c2.07.86 4.32 3.45 2.93 5.7a5.56 5.56 0 00-5.87-2.94A5.84 5.84 0 0010.85 13a8 8 0 000 10 10.74 10.74 0 0012.09 4zm166 0a10.62 10.62 0 01-9.51-2.08c-.17-.34-.52-.52-.86-.86a3.83 3.83 0 01-1-3.29c3.29 3.12 8.3 4.84 12.44 2.08 4.67-3.11 5.36-9.16 2.94-13.83a14.6 14.6 0 00-3.8-4.14 31.57 31.57 0 012.25 2.42 9.33 9.33 0 011.72 5.18 6.82 6.82 0 01-1.72 4.67 1.42 1.42 0 01-1.56.69c.17-2.77 0-5.71-1.73-8.12a9.26 9.26 0 00-3.8-2.6 10.09 10.09 0 00-4.49-.34l-1.56.52c-5.53 2.24-7.6 9-5.87 14.34-1.73-4.84.17-10.71 4.84-13.13.34-.18.86-.35 1.21-.52a7.62 7.62 0 015.18 0c2.07.86 4.32 3.45 2.94 5.7a5.58 5.58 0 00-5.88-2.94 5.89 5.89 0 00-3.8 2.25 8 8 0 000 10 10.76 10.76 0 0012.1 4zM96.75 12.32a4.94 4.94 0 01-.55-2.17 6.55 6.55 0 01.27-1.92 6 6 0 01.9-1.74 4.83 4.83 0 011.77-1.43 8 8 0 013.75-.81 10.86 10.86 0 015.46 1.47 10.29 10.29 0 014.71 5.28 10.57 10.57 0 01.75 4 10 10 0 01-3.61 8.07 14.08 14.08 0 01-9.42 3.06 14.2 14.2 0 01-9.45-3.06 10 10 0 01-3.65-8 10.28 10.28 0 012.12-6.48 10.49 10.49 0 015.71-3.74l.18.27a7.87 7.87 0 00-2.31 3.78 17.87 17.87 0 00-.78 5.37A12.24 12.24 0 0094.85 22a7.13 7.13 0 005.9 2.88 7.24 7.24 0 005.88-2.71 11 11 0 002.23-7.17 13.63 13.63 0 00-.82-4.87 7.44 7.44 0 00-2.38-3.36 5.67 5.67 0 00-3.49-1.19 5.18 5.18 0 00-3.45 1.11 5.09 5.09 0 00-1.86 4.05 5.91 5.91 0 00.22 1.59z"/><path fill="none" d="M0 0h200v35H0z"/></svg>